<svg width="225pt" height="225pt" version="1.0" viewBox="0 0 225 225" xmlns="http://www.w3.org/2000/svg">
 <g transform="matrix(1.0033 0 0 1.003 -37.999 -37.944)">
  <path d="m150.73 105.82c-1.0873-0.0144-2.179 0.0133-3.2725 0.0835-15.753 1.0117-29.64 10.252-36.642 24.382-2.8122 5.6752-3.1732 6.1054-3.9375 4.6772-1.4042-2.6238-7.2293-8.2493-10.567-10.206-1.7301-1.0139-5.5707-2.3481-8.5356-2.9663-9.9472-2.074-19.499 1.0791-26.643 8.7949-5.4612 5.8987-7.4341 11.039-7.4341 19.375 0 8.3364 1.9729 13.477 7.4341 19.375 7.0978 7.6664 16.704 10.866 26.492 8.8257 2.8824-0.60099 6.3373-1.6596 7.6772-2.3525 3.0238-1.5637 9.4859-7.5126 11.212-10.321l1.2891-2.0962 2.6104 5.4712c9.1436 19.165 30.053 29.067 50.392 23.865 12.639-3.2325 23.213-11.759 28.787-23.215 2.2419-4.6072 3.1282-5.8339 3.46-4.7886 0.65128 2.052 7.082 8.3503 10.68 10.46 1.7081 1.0017 5.5311 2.3276 8.4961 2.9458 9.9472 2.074 19.499-1.0792 26.643-8.7949 5.4612-5.8987 7.4341-11.039 7.4341-19.375 0-8.3364-1.9729-13.477-7.4341-19.375-7.1434-7.7158-16.695-10.869-26.643-8.7949-2.965 0.61821-6.788 1.9426-8.4961 2.9443-3.5982 2.1101-10.029 8.4099-10.68 10.462-0.33178 1.0453-1.2181-0.18141-3.46-4.7886-7.1892-14.774-22.553-24.373-38.862-24.589zm-0.78076 17.634c13.359 0.0221 23.664 8.5428 26.391 21.82 1.7914 8.7246-1.5316 18.3-8.5342 24.596-5.872 5.2795-15.348 7.9205-22.787 6.3516-7.9833-1.6836-15.479-7.5901-18.905-14.899-1.7113-3.6502-1.9863-5.2216-1.9863-11.361 0-6.1397 0.27499-7.7112 1.9863-11.361 2.6243-5.5975 7.1711-10.015 13.223-12.847 4.1594-1.9464 5.8283-2.3077 10.613-2.2998zm-67.995 15.25c1.9333-0.0686 3.9105 0.38136 5.8096 1.3755 2.8646 1.4995 5.9883 6.6542 5.9883 9.8818s-3.1237 8.3823-5.9883 9.8818c-3.3663 1.7622-8.0154 1.7414-10.953-0.0498-4.137-2.5227-5.5591-5.0487-5.5591-9.876 0-3.5892 0.34034-4.7453 1.9644-6.6753 2.4149-2.87 5.5156-4.4238 8.7378-4.5381zm136.1 0c3.2222 0.11427 6.3228 1.6681 8.7378 4.5381 1.6289 1.9359 1.9644 3.083 1.9644 6.7192s-0.33542 4.7834-1.9644 6.7192c-3.8639 4.592-9.4831 5.8136-14.547 3.1626-2.8646-1.4996-5.9883-6.6542-5.9883-9.8818s3.1237-8.3823 5.9883-9.8818c1.8991-0.99412 3.8762-1.444 5.8096-1.3755zm-47.328 58.286c-4.2337 0.10498-8.3982 2.016-10.831 5.6924-2.809 4.2447-3.2282 11.821-0.91846 16.592 3.43 7.0855 13.864 9.757 20.172 5.165 1.0898-0.79324 2.7617-2.9404 3.7148-4.7725 1.4533-2.7934 1.6954-4.2487 1.5-9.0146-0.20134-4.9103-0.52768-6.0684-2.395-8.5166-2.7069-3.5489-7.009-5.251-11.243-5.146zm-38.72 0.2212c-1.9243 0-2.2584 0.63575-7.3945 14.062-2.9586 7.7344-5.3738 14.316-5.3672 14.625 7e-3 0.30938 0.96186 0.5625 2.124 0.5625 1.9036 0 2.2431-0.40876 3.4145-4.125l1.2993-4.125h11.681l1.4019 4.125c1.2511 3.6807 1.6275 4.125 3.4966 4.125 1.1521 0 2.0998-0.25312 2.1064-0.5625 7e-3 -0.30937-2.4086-6.8906-5.3672-14.625-5.1361-13.427-5.4702-14.062-7.3945-14.062zm16.5 0v29.25h3.75v-29.25h-1.875zm23.061 3.605c1.2697 0.0484 2.6051 0.34209 3.9683 0.90674 5.9699 2.4728 6.8504 14.471 1.3989 19.058-2.7118 2.2818-8.2926 2.6675-11.016 0.76025-2.56-1.7931-4.1265-5.5137-4.1265-9.7998 0-6.7526 4.2729-11.135 9.7749-10.925zm-39.5 2.9941c0.5809 0.69767 3.6885 9.0946 3.6885 9.9668 0 0.37579-1.8268 0.68408-4.0591 0.68408h-4.0591l1.9966-5.5884c1.0976-3.0734 2.1925-5.3515 2.4331-5.0625z" fill="#fff"/>
  <path d="m83.042 261.63c-11.82-1.5609-21.463-6.4239-30.19-15.225-4.6619-4.7012-6.7325-7.5141-9.1634-12.449-6.0898-12.362-5.8137-8.3724-5.8137-84 0-75.612-0.27584-71.62 5.8036-84 4.4196-9.0001 13.321-17.902 22.321-22.321 12.38-6.0795 8.3879-5.8036 84-5.8036 75.612 0 71.62-0.27584 84 5.8036 9.0001 4.4196 17.902 13.321 22.321 22.321 6.0795 12.38 5.8036 8.3879 5.8036 84s0.27584 71.62-5.8036 84c-4.4202 9.0015-13.322 17.903-22.321 22.32-12.214 5.9951-8.1389 5.6998-81 5.8716-35.681 0.0842-67.162-0.14904-69.958-0.51819zm96.101-37.194c1.0898-0.79325 2.7612-2.9413 3.7144-4.7734 1.4533-2.7934 1.6954-4.2486 1.5-9.0145-0.20134-4.9103-0.52707-6.0689-2.3944-8.5171-5.4138-7.0978-17.209-6.8054-22.074 0.54733-2.809 4.2447-3.2285 11.821-0.91874 16.592 3.43 7.0855 13.865 9.7575 20.173 5.1656zm-13.231-2.9c-2.56-1.7931-4.1269-5.514-4.1269-9.8 0-8.3108 6.4728-13.029 13.743-10.018 5.9699 2.4728 6.851 14.471 1.3996 19.058-2.7118 2.2818-8.2927 2.6665-11.016 0.75923zm-41.136 0.79552 1.3003-4.125h11.68l1.4021 4.125c1.2511 3.6807 1.6278 4.125 3.4968 4.125 1.1521 0 2.1001-0.25312 2.1067-0.5625 7e-3 -0.30937-2.4087-6.8906-5.3673-14.625-5.1361-13.427-5.4704-14.062-7.3947-14.062-1.9243 0-2.2586 0.63575-7.3947 14.062-2.9586 7.7344-5.3739 14.316-5.3673 14.625 7e-3 0.30938 0.96288 0.5625 2.125 0.5625 1.9036 0 2.2419-0.40876 3.4133-4.125zm4.852-13.463c1.0976-3.0734 2.1926-5.3515 2.4333-5.0625 0.5809 0.69767 3.6884 9.095 3.6884 9.9672 0 0.37579-1.8264 0.68326-4.0587 0.68326h-4.0587zm22.622 2.963v-14.625h-3.75v29.25h3.75zm8.553-19.107c12.639-3.2325 23.213-11.76 28.788-23.216 2.2419-4.6072 3.1278-5.8332 3.4596-4.7879 0.65128 2.052 7.0822 8.3507 10.68 10.461 1.7081 1.0017 5.5315 2.327 8.4965 2.9453 9.9472 2.074 19.499-1.0791 26.643-8.7949 5.4612-5.8987 7.4333-11.039 7.4333-19.376s-1.9721-13.477-7.4333-19.376c-7.1434-7.7158-16.695-10.869-26.643-8.7949-2.965 0.61822-6.7884 1.9436-8.4965 2.9453-3.5982 2.1101-10.029 8.4088-10.68 10.461-0.33177 1.0453-1.2177-0.18075-3.4596-4.7879-7.6685-15.759-24.639-25.629-42.135-24.505-15.753 1.0117-29.639 10.253-36.641 24.383-2.8122 5.6752-3.1742 6.1051-3.9384 4.677-1.4042-2.6238-7.2286-8.2489-10.567-10.205-1.7301-1.0139-5.5715-2.3492-8.5365-2.9675-9.9472-2.074-19.499 1.0791-26.643 8.7949-5.4612 5.8987-7.4333 11.039-7.4333 19.376s1.9721 13.477 7.4333 19.376c7.0978 7.6664 16.705 10.867 26.492 8.8262 2.8824-0.60099 6.337-1.6596 7.6769-2.3525 3.0238-1.5637 9.4864-7.5127 11.212-10.321l1.2887-2.097 2.6107 5.472c9.1436 19.165 30.052 29.067 50.392 23.865zm-15.787-16.508c-7.9833-1.6836-15.479-7.591-18.905-14.9-1.7113-3.6502-1.986-5.2213-1.986-11.361 0-6.1397 0.27463-7.7108 1.986-11.361 2.6243-5.5975 7.1709-10.015 13.223-12.847 4.1594-1.9464 5.8289-2.3083 10.613-2.3003 13.359 0.0221 23.664 8.5432 26.39 21.821 1.7914 8.7246-1.5307 18.3-8.5333 24.596-5.872 5.2795-15.349 7.9212-22.788 6.3523zm-68.208-16.429c-4.137-2.5227-5.5585-5.0481-5.5585-9.8754 0-3.5892 0.34033-4.7458 1.9643-6.6758 3.8639-4.592 9.4831-5.8136 14.547-3.1626 2.8646 1.4995 5.9883 6.6544 5.9883 9.882s-3.1238 8.3825-5.9883 9.882c-3.3663 1.7622-8.016 1.7409-10.953-0.0503zm135.43 0.0503c-2.8646-1.4996-5.9883-6.6544-5.9883-9.882s3.1238-8.3825 5.9883-9.882c5.0642-2.651 10.683-1.4294 14.547 3.1626 1.6289 1.9359 1.9643 3.0832 1.9643 6.7194s-0.33541 4.7835-1.9643 6.7194c-3.8639 4.592-9.4831 5.8136-14.547 3.1626z" fill="#0082c9" stroke-width=".75"/>
 </g>
</svg>
